<?xml version="1.0" encoding="UTF-8" standalone="no"?>
<!-- Created with Inkscape (http://www.inkscape.org/) -->

<svg
   width="178mm"
   height="161mm"
   viewBox="0 0 178 161"
   version="1.1"
   id="svg1"
   xml:space="preserve"
   inkscape:version="1.3 (0e150ed6c4, 2023-07-21)"
   sodipodi:docname="logo_navbar.svg"
   xmlns:inkscape="http://www.inkscape.org/namespaces/inkscape"
   xmlns:sodipodi="http://sodipodi.sourceforge.net/DTD/sodipodi-0.dtd"
   xmlns:xlink="http://www.w3.org/1999/xlink"
   xmlns="http://www.w3.org/2000/svg"
   xmlns:svg="http://www.w3.org/2000/svg"><sodipodi:namedview
     id="namedview1"
     pagecolor="#ffffff"
     bordercolor="#000000"
     borderopacity="0.25"
     inkscape:showpageshadow="2"
     inkscape:pageopacity="0.0"
     inkscape:pagecheckerboard="0"
     inkscape:deskcolor="#d1d1d1"
     inkscape:document-units="mm"
     showguides="true"
     inkscape:zoom="0.69219276"
     inkscape:cx="397.28818"
     inkscape:cy="578.59605"
     inkscape:window-width="2400"
     inkscape:window-height="1261"
     inkscape:window-x="-9"
     inkscape:window-y="-9"
     inkscape:window-maximized="1"
     inkscape:current-layer="layer1"><sodipodi:guide
       position="105.49804,113.45558"
       orientation="1,0"
       id="guide1"
       inkscape:locked="false" /></sodipodi:namedview><defs
     id="defs1"><inkscape:path-effect
       effect="fillet_chamfer"
       id="path-effect19"
       is_visible="true"
       lpeversion="1"
       nodesatellites_param="F,0,0,1,0,3.4415331,0,1 @ F,0,0,1,0,2.3267514,0,1 @ F,0,0,1,0,3.1910538,0,1 @ F,0,0,1,0,2.3341983,0,1 @ F,0,0,1,0,3.4447734,0,1"
       radius="0"
       unit="px"
       method="auto"
       mode="F"
       chamfer_steps="1"
       flexible="false"
       use_knot_distance="true"
       apply_no_radius="true"
       apply_with_radius="true"
       only_selected="false"
       hide_knots="false" /><inkscape:path-effect
       effect="fillet_chamfer"
       id="path-effect10"
       is_visible="true"
       lpeversion="1"
       nodesatellites_param="F,0,0,1,0,3.4415331,0,1 @ F,0,0,1,0,2.3267514,0,1 @ F,0,0,1,0,3.1910538,0,1 @ F,0,0,1,0,2.3341983,0,1 @ F,0,0,1,0,3.4447734,0,1"
       radius="0"
       unit="px"
       method="auto"
       mode="F"
       chamfer_steps="1"
       flexible="false"
       use_knot_distance="true"
       apply_no_radius="true"
       apply_with_radius="true"
       only_selected="false"
       hide_knots="false" /><rect
       x="110.30866"
       y="96.166519"
       width="400.22244"
       height="97.580734"
       id="rect36" /><inkscape:path-effect
       effect="fillet_chamfer"
       id="path-effect36"
       is_visible="true"
       lpeversion="1"
       nodesatellites_param="F,0,0,1,0,1.3853598,0,1 @ F,0,1,1,0,1.3853598,0,1 @ F,0,0,1,0,1.381518,0,1 @ F,0,0,1,0,1.3895215,0,1"
       radius="0"
       unit="px"
       method="auto"
       mode="F"
       chamfer_steps="1"
       flexible="false"
       use_knot_distance="true"
       apply_no_radius="true"
       apply_with_radius="true"
       only_selected="false"
       hide_knots="false" /><linearGradient
       id="linearGradient18"
       inkscape:collect="always"><stop
         style="stop-color:#45a3fa;stop-opacity:1;"
         offset="0.5"
         id="stop18" /><stop
         style="stop-color:#2c69ba;stop-opacity:1;"
         offset="0.50211418"
         id="stop19" /></linearGradient><inkscape:path-effect
       effect="fillet_chamfer"
       id="path-effect16"
       is_visible="true"
       lpeversion="1"
       nodesatellites_param="F,0,0,1,0,3.4415331,0,1 @ F,0,0,1,0,2.3267514,0,1 @ F,0,0,1,0,3.1910538,0,1 @ F,0,0,1,0,2.3341983,0,1 @ F,0,0,1,0,3.4447734,0,1"
       radius="0"
       unit="px"
       method="auto"
       mode="F"
       chamfer_steps="1"
       flexible="false"
       use_knot_distance="true"
       apply_no_radius="true"
       apply_with_radius="true"
       only_selected="false"
       hide_knots="false" /><inkscape:path-effect
       effect="fillet_chamfer"
       id="path-effect13"
       is_visible="true"
       lpeversion="1"
       nodesatellites_param="F,0,0,1,0,3.4415331,0,1 @ F,0,0,1,0,2.3267514,0,1 @ F,0,0,1,0,3.1910538,0,1 @ F,0,0,1,0,2.3341983,0,1 @ F,0,0,1,0,3.4447734,0,1"
       radius="0"
       unit="px"
       method="auto"
       mode="F"
       chamfer_steps="1"
       flexible="false"
       use_knot_distance="true"
       apply_no_radius="true"
       apply_with_radius="true"
       only_selected="false"
       hide_knots="false" /><linearGradient
       id="swatch8"
       inkscape:swatch="solid"><stop
         style="stop-color:#ffffff;stop-opacity:1;"
         offset="0"
         id="stop8" /></linearGradient><inkscape:path-effect
       effect="fillet_chamfer"
       id="path-effect13-8"
       is_visible="true"
       lpeversion="1"
       nodesatellites_param="F,0,0,1,0,3.4415331,0,1 @ F,0,0,1,0,2.3267514,0,1 @ F,0,0,1,0,3.1910538,0,1 @ F,0,0,1,0,2.3341983,0,1 @ F,0,0,1,0,3.4447734,0,1"
       radius="0"
       unit="px"
       method="auto"
       mode="F"
       chamfer_steps="1"
       flexible="false"
       use_knot_distance="true"
       apply_no_radius="true"
       apply_with_radius="true"
       only_selected="false"
       hide_knots="false" /><linearGradient
       inkscape:collect="always"
       xlink:href="#linearGradient18"
       id="linearGradient19"
       x1="0.47885025"
       y1="173.92073"
       x2="209.51981"
       y2="173.92073"
       gradientUnits="userSpaceOnUse" /><rect
       x="110.30866"
       y="96.166519"
       width="400.22244"
       height="97.580734"
       id="rect36-9" /><inkscape:path-effect
       effect="fillet_chamfer"
       id="path-effect36-3"
       is_visible="true"
       lpeversion="1"
       nodesatellites_param="F,0,0,1,0,1.3853598,0,1 @ F,0,1,1,0,1.3853598,0,1 @ F,0,0,1,0,1.381518,0,1 @ F,0,0,1,0,1.3895215,0,1"
       radius="0"
       unit="px"
       method="auto"
       mode="F"
       chamfer_steps="1"
       flexible="false"
       use_knot_distance="true"
       apply_no_radius="true"
       apply_with_radius="true"
       only_selected="false"
       hide_knots="false" /><inkscape:path-effect
       effect="fillet_chamfer"
       id="path-effect16-4"
       is_visible="true"
       lpeversion="1"
       nodesatellites_param="F,0,0,1,0,3.4415331,0,1 @ F,0,0,1,0,2.3267514,0,1 @ F,0,0,1,0,3.1910538,0,1 @ F,0,0,1,0,2.3341983,0,1 @ F,0,0,1,0,3.4447734,0,1"
       radius="0"
       unit="px"
       method="auto"
       mode="F"
       chamfer_steps="1"
       flexible="false"
       use_knot_distance="true"
       apply_no_radius="true"
       apply_with_radius="true"
       only_selected="false"
       hide_knots="false" /><inkscape:path-effect
       effect="fillet_chamfer"
       id="path-effect13-0"
       is_visible="true"
       lpeversion="1"
       nodesatellites_param="F,0,0,1,0,3.4415331,0,1 @ F,0,0,1,0,2.3267514,0,1 @ F,0,0,1,0,3.1910538,0,1 @ F,0,0,1,0,2.3341983,0,1 @ F,0,0,1,0,3.4447734,0,1"
       radius="0"
       unit="px"
       method="auto"
       mode="F"
       chamfer_steps="1"
       flexible="false"
       use_knot_distance="true"
       apply_no_radius="true"
       apply_with_radius="true"
       only_selected="false"
       hide_knots="false" /><inkscape:path-effect
       effect="fillet_chamfer"
       id="path-effect13-8-7"
       is_visible="true"
       lpeversion="1"
       nodesatellites_param="F,0,0,1,0,3.4415331,0,1 @ F,0,0,1,0,2.3267514,0,1 @ F,0,0,1,0,3.1910538,0,1 @ F,0,0,1,0,2.3341983,0,1 @ F,0,0,1,0,3.4447734,0,1"
       radius="0"
       unit="px"
       method="auto"
       mode="F"
       chamfer_steps="1"
       flexible="false"
       use_knot_distance="true"
       apply_no_radius="true"
       apply_with_radius="true"
       only_selected="false"
       hide_knots="false" /></defs><g
     inkscape:label="Capa 1"
     inkscape:groupmode="layer"
     id="layer1"><g
       id="g18"
       inkscape:label="g1"
       style="fill:#ffffff;fill-opacity:1"
       transform="matrix(1.0396034,0,0,1.0396034,-21.13122,-87.513549)"><g
         inkscape:label="Capa 1"
         id="g17"
         transform="translate(0.14757797,-21.946837)"
         style="fill:#ffffff;fill-opacity:1"><path
           style="display:inline;fill:#ffffff;fill-opacity:1;stroke:none;stroke-width:2.965;stroke-linejoin:round;stroke-dasharray:none;stroke-opacity:1"
           d="M 24.141814,95.759526 0.57999029,187.29895 A 3.204105,3.204105 68.448006 0 0 1.9631982,190.8011 L 102.30786,254.63336 a 5.016315,5.016315 179.9998 0 0 5.38489,-2e-5 l 100.33839,-63.82926 a 3.2134582,3.2134582 111.54395 0 0 1.387,-3.51322 L 185.83181,95.760058 a 4.4449131,4.4449131 37.774559 0 0 -4.30436,-3.335749 l -153.086231,0.0023 a 4.4396124,4.4396124 142.21675 0 0 -4.299405,3.332948 z"
           id="path10"
           inkscape:label="contenedor izq"
           inkscape:path-effect="#path-effect19"
           inkscape:original-d="M 24.999686,92.426629 0,189.55225 105.00031,256.34611 210.00061,189.55122 184.97222,92.424258 Z"
           transform="matrix(0.76594315,0,0,0.76594315,24.583668,37.533612)"
           sodipodi:nodetypes="cccccc"
           sodipodi:insensitive="true" /><path
           style="fill:#ffffff;fill-opacity:1;stroke:#ffffff;stroke-width:2.57629;stroke-linejoin:round;stroke-dasharray:none;stroke-opacity:1"
           d="m 112.42319,129.60572 -38.755807,37.28406 56.416667,24.52899 4.9058,-11.77392 z"
           id="path11"
           inkscape:label="trinagulo" /><g
           id="g12"
           transform="matrix(0.83493792,0,0,0.83493792,42.031145,-8.1915986)"
           style="display:inline;fill:#ffffff;fill-opacity:1"><circle
             style="display:inline;fill:#ffffff;fill-opacity:1;stroke:none;stroke-width:2.965;stroke-linejoin:round;stroke-dasharray:none;stroke-opacity:1"
             id="circle11"
             cy="166.95209"
             cx="84.666664"
             r="17" /><path
             style="fill:#ffffff;fill-opacity:1;stroke:none;stroke-width:2.965;stroke-linejoin:round;stroke-dasharray:none;stroke-opacity:1"
             d="m 79.999273,179.42081 c 0,0 2.413286,0.78065 5.032526,0.79235 2.619242,0.0117 4.967874,-0.79466 4.967874,-0.79466 l 0.0041,-9.94461 c 0,0 -0.781346,-3.15846 -4.981607,-3.15846 -4.20026,0 -5.02295,3.15846 -5.02295,3.15846 z"
             id="path12"
             sodipodi:nodetypes="csccscc" /><circle
             style="fill:#ffffff;fill-opacity:1;stroke:none;stroke-width:2.965;stroke-linejoin:round;stroke-dasharray:none;stroke-opacity:1"
             id="circle12"
             cx="84.997398"
             cy="160.98241"
             r="3" /></g><g
           id="g14"
           style="display:inline;fill:#ffffff;fill-opacity:1"
           transform="matrix(1.3110888,0,0,1.3110888,-35.241317,-51.663481)"><circle
             style="display:inline;fill:#ffffff;fill-opacity:1;stroke:none;stroke-width:2.965;stroke-linejoin:round;stroke-dasharray:none;stroke-opacity:1"
             id="circle13"
             cy="166.95209"
             cx="84.666664"
             r="17" /><path
             style="fill:#ffffff;fill-opacity:1;stroke:none;stroke-width:2.965;stroke-linejoin:round;stroke-dasharray:none;stroke-opacity:1"
             d="m 79.999273,179.42081 c 0,0 2.413286,0.78065 5.032526,0.79235 2.619242,0.0117 4.967874,-0.79466 4.967874,-0.79466 l 0.0041,-9.94461 c 0,0 -0.781346,-3.15846 -4.981607,-3.15846 -4.20026,0 -5.02295,3.15846 -5.02295,3.15846 z"
             id="path13"
             sodipodi:nodetypes="csccscc" /><circle
             style="fill:#ffffff;fill-opacity:1;stroke:none;stroke-width:2.965;stroke-linejoin:round;stroke-dasharray:none;stroke-opacity:1"
             id="circle14"
             cx="84.997398"
             cy="160.98241"
             r="3" /></g><g
           id="g16"
           transform="matrix(1.0946566,0,0,1.0946566,39.499949,2.6217837)"
           style="fill:#ffffff;fill-opacity:1"><circle
             style="display:inline;fill:#ffffff;fill-opacity:1;stroke:none;stroke-width:2.965;stroke-linejoin:round;stroke-dasharray:none;stroke-opacity:1"
             id="circle15"
             cy="166.95209"
             cx="84.666664"
             r="17" /><path
             style="fill:#ffffff;fill-opacity:1;stroke:none;stroke-width:2.965;stroke-linejoin:round;stroke-dasharray:none;stroke-opacity:1"
             d="m 79.999273,179.42081 c 0,0 2.413286,0.78065 5.032526,0.79235 2.619242,0.0117 4.967874,-0.79466 4.967874,-0.79466 l 0.0041,-9.94461 c 0,0 -0.781346,-3.15846 -4.981607,-3.15846 -4.20026,0 -5.02295,3.15846 -5.02295,3.15846 z"
             id="path16"
             sodipodi:nodetypes="csccscc" /><circle
             style="fill:#ffffff;fill-opacity:1;stroke:none;stroke-width:2.965;stroke-linejoin:round;stroke-dasharray:none;stroke-opacity:1"
             id="circle16"
             cx="84.997398"
             cy="160.98241"
             r="3" /></g></g><path
         style="font-family:Winner-WideExtraBold;-inkscape-font-specification:Winner-WideExtraBold;white-space:pre;fill:#ffffff;fill-opacity:1;stroke-width:12.7019;stroke-linejoin:round"
         d="m 40.277098,225.05574 h -4.925627 v -1.10825 h -8.414612 v 2.09338 h 10.815855 l 2.524384,2.52439 v 5.254 l -2.524384,2.52438 H 24.55614 l -2.524384,-2.52438 v -2.72962 h 4.905103 v 1.23141 h 8.414612 v -2.25759 H 24.55614 l -2.524384,-2.52438 v -5.08982 l 2.524384,-2.52438 h 13.196574 l 2.524384,2.52438 z m 21.529093,7.14217 h 2.052343 v 4.14573 h -10.48748 v -4.00206 h 2.196009 l -2.955376,-3.14009 -2.914329,1.51874 v 1.47768 h 1.84711 v 4.14573 h -9.173979 v -4.14573 h 2.401243 v -8.12728 h -2.401243 v -4.14575 h 9.194502 v 4.14575 h -1.867633 v 3.34532 l 6.670119,-3.50951 h -2.360196 v -3.98156 h 9.502355 v 4.14575 h -1.354547 l -5.602901,3.30426 z m 19.476764,-12.27303 2.524384,2.52438 v 11.37 l -2.524384,2.52438 H 68.086381 l -2.524384,-2.52438 v -11.37 l 2.524384,-2.52438 z m -2.401243,4.14575 H 70.4671 v 8.12728 h 8.414612 z m 20.913371,4.57672 h 4.412537 v 7.69629 H 85.900713 v -4.14573 h 2.401243 v -8.14781 h -2.401243 v -4.14574 l 10.056487,0.0204 v 4.14575 h -2.729618 v 8.12728 h 6.567501 z m 26.249517,3.55056 h 2.07287 v 4.14573 h -9.85125 v -3.71473 h 2.31914 l -0.80042,-1.62137 h -6.30069 l -0.80041,1.62137 h 2.36019 v 3.71473 h -9.70758 v -4.14573 h 2.09339 l 4.59725,-8.29147 h -2.95537 v -3.98156 h 10.13858 l -0.0206,0.0206 z m -10.98004,-4.33044 h 3.14008 l -1.55977,-3.11957 z m 32.01656,4.33044 h 3.20165 v 4.14573 h -5.43872 l -6.75221,-6.4854 h -1.5803 v 2.33967 h 2.48333 v 4.14573 h -9.8102 v -4.14573 h 2.40124 v -8.12728 h -2.40124 v -4.14575 h 17.73226 l 2.52438,2.52438 v 4.65883 l -2.64752,2.64753 h -2.83224 q 0.96461,0.28733 2.66805,1.99077 z m -10.56958,-8.10676 v 2.0113 h 8.02466 v -2.0113 z m 28.83547,4.5562 h 4.41253 v 7.69629 h -18.3069 v -4.14573 h 2.40124 v -8.14781 h -2.40124 v -4.14574 l 10.05649,0.0204 v 4.14575 h -2.72962 v 8.12728 h 6.5675 z m 22.00114,-4.61777 -6.25966,6.07493 v 2.13444 h 2.66805 v 4.10469 h -10.22067 v -4.10469 h 2.68857 v -2.13444 l -6.25966,-6.07493 h -2.38071 v -4.1047 h 10.24119 v 3.96103 h -1.88815 l 2.93484,2.9759 2.91434,-2.9759 h -1.90868 v -3.96103 h 9.85125 v 4.1047 z"
         id="path17"
         aria-label="SKOLARLY" /></g><g
       id="g9"
       inkscape:label="g1"
       style="display:inline"
       transform="translate(-16.583221,-80.799437)"><g
         inkscape:label="Capa 1"
         id="g8"
         transform="translate(0.14757797,-21.946837)"><path
           style="display:inline;fill:url(#linearGradient19);stroke:none;stroke-width:2.965;stroke-linejoin:round;stroke-dasharray:none;stroke-opacity:1"
           d="M 24.141814,95.759526 0.57999029,187.29895 A 3.204105,3.204105 68.448006 0 0 1.9631982,190.8011 L 102.30786,254.63336 a 5.016315,5.016315 179.9998 0 0 5.38489,-2e-5 l 100.33839,-63.82926 a 3.2134582,3.2134582 111.54395 0 0 1.387,-3.51322 L 185.83181,95.760058 a 4.4449131,4.4449131 37.774559 0 0 -4.30436,-3.335749 l -153.086231,0.0023 a 4.4396124,4.4396124 142.21675 0 0 -4.299405,3.332948 z"
           id="path1"
           inkscape:label="contenedor izq"
           inkscape:path-effect="#path-effect10"
           inkscape:original-d="M 24.999686,92.426629 0,189.55225 105.00031,256.34611 210.00061,189.55122 184.97222,92.424258 Z"
           transform="matrix(0.76594315,0,0,0.76594315,24.583668,37.533612)"
           sodipodi:nodetypes="cccccc"
           sodipodi:insensitive="true" /><path
           style="fill:#e30000;fill-opacity:0;stroke:#ffffff;stroke-width:2.57629;stroke-linejoin:round;stroke-dasharray:none;stroke-opacity:1"
           d="m 112.42319,129.60572 -38.755807,37.28406 56.416667,24.52899 4.9058,-11.77392 z"
           id="path2"
           inkscape:label="trinagulo" /><g
           id="g3"
           transform="matrix(0.83493792,0,0,0.83493792,42.031145,-8.1915986)"
           style="display:inline"><circle
             style="display:inline;fill:#ffffff;fill-opacity:1;stroke:none;stroke-width:2.965;stroke-linejoin:round;stroke-dasharray:none;stroke-opacity:1"
             id="circle2"
             cy="166.95209"
             cx="84.666664"
             r="17" /><path
             style="fill:#2c69ba;fill-opacity:1;stroke:none;stroke-width:2.965;stroke-linejoin:round;stroke-dasharray:none;stroke-opacity:1"
             d="m 79.999273,179.42081 c 0,0 2.413286,0.78065 5.032526,0.79235 2.619242,0.0117 4.967874,-0.79466 4.967874,-0.79466 l 0.0041,-9.94461 c 0,0 -0.781346,-3.15846 -4.981607,-3.15846 -4.20026,0 -5.02295,3.15846 -5.02295,3.15846 z"
             id="path3"
             sodipodi:nodetypes="csccscc" /><circle
             style="fill:#2c69ba;fill-opacity:1;stroke:none;stroke-width:2.965;stroke-linejoin:round;stroke-dasharray:none;stroke-opacity:1"
             id="circle3"
             cx="84.997398"
             cy="160.98241"
             r="3" /></g><g
           id="g5"
           style="display:inline"
           transform="matrix(1.3110888,0,0,1.3110888,-35.241317,-51.663481)"><circle
             style="display:inline;fill:#ffffff;fill-opacity:1;stroke:none;stroke-width:2.965;stroke-linejoin:round;stroke-dasharray:none;stroke-opacity:1"
             id="circle4"
             cy="166.95209"
             cx="84.666664"
             r="17" /><path
             style="fill:#45a3fa;fill-opacity:1;stroke:none;stroke-width:2.965;stroke-linejoin:round;stroke-dasharray:none;stroke-opacity:1"
             d="m 79.999273,179.42081 c 0,0 2.413286,0.78065 5.032526,0.79235 2.619242,0.0117 4.967874,-0.79466 4.967874,-0.79466 l 0.0041,-9.94461 c 0,0 -0.781346,-3.15846 -4.981607,-3.15846 -4.20026,0 -5.02295,3.15846 -5.02295,3.15846 z"
             id="path4"
             sodipodi:nodetypes="csccscc" /><circle
             style="fill:#45a3fa;fill-opacity:1;stroke:none;stroke-width:2.965;stroke-linejoin:round;stroke-dasharray:none;stroke-opacity:1"
             id="circle5"
             cx="84.997398"
             cy="160.98241"
             r="3" /></g><g
           id="g7"
           transform="matrix(1.0946566,0,0,1.0946566,39.499949,2.6217837)"><circle
             style="display:inline;fill:#ffffff;fill-opacity:1;stroke:none;stroke-width:2.965;stroke-linejoin:round;stroke-dasharray:none;stroke-opacity:1"
             id="circle6"
             cy="166.95209"
             cx="84.666664"
             r="17" /><path
             style="fill:#2c69ba;fill-opacity:1;stroke:none;stroke-width:2.965;stroke-linejoin:round;stroke-dasharray:none;stroke-opacity:1"
             d="m 79.999273,179.42081 c 0,0 2.413286,0.78065 5.032526,0.79235 2.619242,0.0117 4.967874,-0.79466 4.967874,-0.79466 l 0.0041,-9.94461 c 0,0 -0.781346,-3.15846 -4.981607,-3.15846 -4.20026,0 -5.02295,3.15846 -5.02295,3.15846 z"
             id="path6"
             sodipodi:nodetypes="csccscc" /><circle
             style="fill:#2c69ba;fill-opacity:1;stroke:none;stroke-width:2.965;stroke-linejoin:round;stroke-dasharray:none;stroke-opacity:1"
             id="circle7"
             cx="84.997398"
             cy="160.98241"
             r="3" /></g></g><path
         style="font-family:Winner-WideExtraBold;-inkscape-font-specification:Winner-WideExtraBold;white-space:pre;fill:#2c69ba;stroke-width:12.7019;stroke-linejoin:round"
         d="m 40.277098,225.05574 h -4.925627 v -1.10825 h -8.414612 v 2.09338 h 10.815855 l 2.524384,2.52439 v 5.254 l -2.524384,2.52438 H 24.55614 l -2.524384,-2.52438 v -2.72962 h 4.905103 v 1.23141 h 8.414612 v -2.25759 H 24.55614 l -2.524384,-2.52438 v -5.08982 l 2.524384,-2.52438 h 13.196574 l 2.524384,2.52438 z m 21.529093,7.14217 h 2.052343 v 4.14573 h -10.48748 v -4.00206 h 2.196009 l -2.955376,-3.14009 -2.914329,1.51874 v 1.47768 h 1.84711 v 4.14573 h -9.173979 v -4.14573 h 2.401243 v -8.12728 h -2.401243 v -4.14575 h 9.194502 v 4.14575 h -1.867633 v 3.34532 l 6.670119,-3.50951 h -2.360196 v -3.98156 h 9.502355 v 4.14575 h -1.354547 l -5.602901,3.30426 z m 19.476764,-12.27303 2.524384,2.52438 v 11.37 l -2.524384,2.52438 H 68.086381 l -2.524384,-2.52438 v -11.37 l 2.524384,-2.52438 z m -2.401243,4.14575 H 70.4671 v 8.12728 h 8.414612 z m 20.913371,4.57672 h 4.412537 v 7.69629 H 85.900713 v -4.14573 h 2.401243 v -8.14781 h -2.401243 v -4.14574 l 10.056487,0.0204 v 4.14575 h -2.729618 v 8.12728 h 6.567501 z m 26.249517,3.55056 h 2.07287 v 4.14573 h -9.85125 v -3.71473 h 2.31914 l -0.80042,-1.62137 h -6.30069 l -0.80041,1.62137 h 2.36019 v 3.71473 h -9.70758 v -4.14573 h 2.09339 l 4.59725,-8.29147 h -2.95537 v -3.98156 h 10.13858 l -0.0206,0.0206 z m -10.98004,-4.33044 h 3.14008 l -1.55977,-3.11957 z m 32.01656,4.33044 h 3.20165 v 4.14573 h -5.43872 l -6.75221,-6.4854 h -1.5803 v 2.33967 h 2.48333 v 4.14573 h -9.8102 v -4.14573 h 2.40124 v -8.12728 h -2.40124 v -4.14575 h 17.73226 l 2.52438,2.52438 v 4.65883 l -2.64752,2.64753 h -2.83224 q 0.96461,0.28733 2.66805,1.99077 z m -10.56958,-8.10676 v 2.0113 h 8.02466 v -2.0113 z m 28.83547,4.5562 h 4.41253 v 7.69629 h -18.3069 v -4.14573 h 2.40124 v -8.14781 h -2.40124 v -4.14574 l 10.05649,0.0204 v 4.14575 h -2.72962 v 8.12728 h 6.5675 z m 22.00114,-4.61777 -6.25966,6.07493 v 2.13444 h 2.66805 v 4.10469 h -10.22067 v -4.10469 h 2.68857 v -2.13444 l -6.25966,-6.07493 h -2.38071 v -4.1047 h 10.24119 v 3.96103 h -1.88815 l 2.93484,2.9759 2.91434,-2.9759 h -1.90868 v -3.96103 h 9.85125 v 4.1047 z"
         id="path8"
         aria-label="SKOLARLY" /></g></g></svg>
