<?xml version="1.0" encoding="UTF-8" standalone="no"?>
<!-- Created with Inkscape (http://www.inkscape.org/) -->

<svg
   width="210mm"
   height="210mm"
   viewBox="0 0 210 210"
   version="1.1"
   id="svg1"
   xml:space="preserve"
   inkscape:version="1.3 (0e150ed6c4, 2023-07-21)"
   sodipodi:docname="default.svg"
   xmlns:inkscape="http://www.inkscape.org/namespaces/inkscape"
   xmlns:sodipodi="http://sodipodi.sourceforge.net/DTD/sodipodi-0.dtd"
   xmlns="http://www.w3.org/2000/svg"
   xmlns:svg="http://www.w3.org/2000/svg"><sodipodi:namedview
     id="namedview1"
     pagecolor="#ffffff"
     bordercolor="#000000"
     borderopacity="0.25"
     inkscape:showpageshadow="2"
     inkscape:pageopacity="0.0"
     inkscape:pagecheckerboard="0"
     inkscape:deskcolor="#d1d1d1"
     inkscape:document-units="mm"
     showguides="true"
     inkscape:zoom="1"
     inkscape:cx="423"
     inkscape:cy="452.5"
     inkscape:window-width="1920"
     inkscape:window-height="991"
     inkscape:window-x="-9"
     inkscape:window-y="1341"
     inkscape:window-maximized="1"
     inkscape:current-layer="layer1"><sodipodi:guide
       position="105,235.24641"
       orientation="-1,0"
       id="guide1"
       inkscape:locked="false"
       inkscape:label=""
       inkscape:color="rgb(0,134,229)" /><sodipodi:guide
       position="-20.140401,105"
       orientation="0,1"
       id="guide2"
       inkscape:locked="false"
       inkscape:label=""
       inkscape:color="rgb(0,134,229)" /><sodipodi:guide
       position="91.566274,86.139811"
       orientation="0,-1"
       id="guide3"
       inkscape:locked="false" /><sodipodi:guide
       position="83.909266,94.192112"
       orientation="1,0"
       id="guide5"
       inkscape:locked="false" /><sodipodi:guide
       position="126.28485,90.26325"
       orientation="1,0"
       id="guide6"
       inkscape:locked="false" /></sodipodi:namedview><defs
     id="defs1" /><g
     inkscape:label="Capa 1"
     inkscape:groupmode="layer"
     id="layer1"><rect
       style="fill:#e4e4e7;fill-opacity:1;stroke-width:1.965;stroke-linejoin:round"
       id="rect7"
       width="210"
       height="210"
       x="0"
       y="0" /><path
       style="fill:#d4d4d8;fill-opacity:1;stroke-width:1.965;stroke-linejoin:round"
       d="m 44.648437,162.32187 46.861306,47.68516 H 210.19412 V 103.60035 L 139.02188,32.428113 67.997916,95.249999 101.73229,128.98437 Z"
       id="path7" /><g
       id="g7"
       style="fill:#333333"><g
         id="g3"
         transform="translate(40.210707,12.197708)"
         style="fill:#333333"><path
           style="display:inline;fill:#333333;fill-opacity:1;stroke-width:1.82967;stroke-linejoin:round"
           id="path2"
           sodipodi:type="arc"
           sodipodi:cx="53.912548"
           sodipodi:cy="-64.784462"
           sodipodi:rx="47.939999"
           sodipodi:ry="48.791"
           sodipodi:start="0"
           sodipodi:end="3.1415927"
           sodipodi:open="true"
           sodipodi:arc-type="arc"
           d="m 101.85255,-64.784462 a 47.939999,48.791 0 0 1 -23.970003,42.254246 47.939999,48.791 0 0 1 -47.94,-1e-6 47.939999,48.791 0 0 1 -23.9699976,-42.254245"
           transform="rotate(90)" /><path
           style="display:inline;fill:#333333;fill-opacity:1;stroke-width:1.82967;stroke-linejoin:round"
           id="path2-6"
           sodipodi:type="arc"
           sodipodi:cx="53.917618"
           sodipodi:cy="64.773628"
           sodipodi:rx="47.939999"
           sodipodi:ry="48.791"
           sodipodi:start="0"
           sodipodi:end="3.1415927"
           sodipodi:open="true"
           sodipodi:arc-type="arc"
           d="m 101.85762,64.773628 a 47.939999,48.791 0 0 1 -23.970004,42.254242 47.939999,48.791 0 0 1 -47.939999,0 A 47.939999,48.791 0 0 1 5.9776192,64.773628"
           transform="matrix(0,1,1,0,0,0)" /></g><path
         style="display:inline;fill:#333333;fill-opacity:1;stroke-width:1.965;stroke-linejoin:round"
         d="m 78.540471,123.85637 26.463089,27.07253 v 38.41923 c 0,0 -30.044391,-2.26934 -47.489949,-15.31805 -17.445559,-13.04871 -24.111749,-27.16117 -24.111749,-27.16117 0,0 9.999284,-10.35387 15.247136,-14.04155 5.247849,-3.68768 14.313786,-8.97031 14.313786,-8.97031 z"
         id="path3" /><path
         style="display:inline;fill:#333333;fill-opacity:1;stroke-width:1.965;stroke-linejoin:round"
         d="M 131.4631,123.86 105,150.93253 v 38.41923 c 0,0 30.0444,-2.26934 47.48996,-15.31805 17.44556,-13.04871 24.11175,-27.16117 24.11175,-27.16117 0,0 -9.99929,-10.35387 -15.24714,-14.04155 -5.24785,-3.68768 -14.31378,-8.97031 -14.31378,-8.97031 z"
         id="path3-8" /><path
         d="m 71.056128,123.82293 33.942112,33.67598 33.67598,-33.67598"
         style="display:inline;fill:#333333;stroke-width:1.965;stroke-linejoin:round;fill-opacity:1"
         id="path6"
         sodipodi:nodetypes="ccc" /><path
         style="display:inline;fill:#333333;stroke-width:1.965;stroke-linejoin:round"
         d="m 83.907863,123.85702 21.091097,21.96095 21.28633,-21.95639 z"
         id="path4"
         sodipodi:nodetypes="cccc" /></g></g></svg>
